<?xml version="1.0" standalone="no"?>
<!DOCTYPE svg PUBLIC "-//W3C//DTD SVG 20010904//EN"
 "http://www.w3.org/TR/2001/REC-SVG-20010904/DTD/svg10.dtd">
<svg version="1.0" xmlns="http://www.w3.org/2000/svg"
 width="600.000000pt" height="600.000000pt" viewBox="0 0 600.000000 600.000000"
 preserveAspectRatio="xMidYMid meet">

<g transform="translate(0.000000,600.000000) scale(0.100000,-0.100000)"
fill="#000000" stroke="none">
<path d="M2440 5714 c-176 -22 -367 -78 -525 -153 -260 -124 -440 -273 -599
-495 -113 -158 -223 -417 -266 -625 -59 -292 -39 -655 54 -977 34 -119 95
-288 101 -282 2 2 -10 42 -26 88 -154 433 -175 903 -58 1284 146 473 469 821
932 1005 383 152 879 154 1342 4 162 -52 382 -154 543 -251 45 -28 82 -48 82
-46 0 14 -235 155 -355 214 -221 108 -393 166 -630 211 -87 17 -156 22 -335
24 -124 2 -241 1 -260 -1z"/>
<path d="M5220 3965 c0 -5 5 -17 10 -25 5 -8 10 -10 10 -5 0 6 -5 17 -10 25
-5 8 -10 11 -10 5z"/>
<path d="M5271 3814 c0 -11 3 -14 6 -6 3 7 2 16 -1 19 -3 4 -6 -2 -5 -13z"/>
<path d="M5291 3744 c0 -11 3 -14 6 -6 3 7 2 16 -1 19 -3 4 -6 -2 -5 -13z"/>
<path d="M5301 3704 c0 -11 3 -14 6 -6 3 7 2 16 -1 19 -3 4 -6 -2 -5 -13z"/>
<path d="M5313 3655 c44 -213 51 -285 51 -500 1 -183 -3 -240 -21 -340 -62
-341 -204 -641 -410 -866 -139 -151 -230 -226 -394 -322 -288 -169 -591 -247
-959 -247 -259 0 -474 35 -730 120 -452 149 -831 379 -1151 699 -171 171 -271
291 -393 476 -79 119 -103 154 -99 146 4 -6 -153 -179 -325 -360 -52 -55 -56
-42 73 -236 437 -655 1107 -1108 1845 -1247 154 -29 509 -36 664 -14 353 51
673 196 917 413 459 411 626 582 727 743 205 328 307 762 273 1160 -12 136
-54 387 -67 398 -4 4 -4 -6 -1 -23z"/>
<path d="M1210 3165 c0 -5 5 -17 10 -25 5 -8 10 -10 10 -5 0 6 -5 17 -10 25
-5 8 -10 11 -10 5z"/>
</g>
</svg>
